<?xml version="1.0" encoding="utf-8"?>
<!-- Generator: Adobe Illustrator 16.0.0, SVG Export Plug-In . SVG Version: 6.00 Build 0)  -->
<!DOCTYPE svg PUBLIC "-//W3C//DTD SVG 1.1//EN" "http://www.w3.org/Graphics/SVG/1.1/DTD/svg11.dtd">
<svg version="1.1" id="Capa_1" xmlns="http://www.w3.org/2000/svg" xmlns:xlink="http://www.w3.org/1999/xlink" x="0px" y="0px"
	 width="1060.447px" height="795.015px" viewBox="0 0 1060.447 795.015" enable-background="new 0 0 1060.447 795.015"
	 xml:space="preserve">
<g>
	<path fill-rule="evenodd" clip-rule="evenodd" fill="#00316B" d="M523.224,63.099c-2.7,3.301-8.3,10.2-12.4,15.1
		c-14.1,17.5-15.7,19.4-24.1,29.601c-4.7,5.601-9.8,11.899-11.5,14c-1.6,2-10.9,13.3-20.5,25.101
		c-9.7,11.799-25.1,30.799-34.3,42.399c-9.2,11.5-19.3,24.2-22.4,28.101c-3.2,3.899-13.9,17.1-23.8,29.399
		c-20.5,25.399-23.3,28.8-40.5,49.899c-6.9,8.4-17,21-22.5,28c-5.5,7.101-16.5,21.101-24.5,31.201c-8,10.1-16.9,21.5-19.9,25.399
		c-3,3.8-8.7,11-12.6,16c-4,4.899-10.1,12.8-13.6,17.5c-3.6,4.7-11.2,14.6-16.9,22s-16,20.9-22.9,30c-28.9,38-40.4,53-47.4,61.7
		c-0.7,1,4.8,1.3,27.2,1.3h28.1l11.5-14.8c6.3-8.101,15.4-19.7,20.2-25.8c4.9-6.101,15.1-19.2,22.8-29c11.8-15.2,72-90.7,87.5-109.9
		c35-43.2,49-60.399,69-85c13-16,29.2-36,36.1-44.5c40.2-49.7,66.4-81.899,70.6-86.899l2.899-3.4l22.7,26.9
		c12.4,14.799,28.799,34.299,36.299,43.399c17.701,21.399,45.102,54.3,53.4,64c3.6,4.2,9.701,11.5,13.5,16.3l7,8.6l28.9,0.101
		c27.301,0,28.801-0.101,27.5-1.7c-0.801-1-5.199-6.3-9.9-11.9c-4.699-5.5-16.9-20.399-27.199-33
		c-18.5-22.699-27.1-33.199-48.1-58.799c-5.9-7.201-14.9-18.301-20.102-24.601c-5.1-6.3-18.5-22.601-29.699-36.101
		s-27.1-32.799-35.4-42.899c-8.199-10.101-16.099-19.601-17.499-21.101l-2.5-2.799L523.224,63.099z"/>
	<path fill-rule="evenodd" clip-rule="evenodd" fill="#393E44" d="M373.724,173.999v60.199l3.3-4.399c1.7-2.399,5.9-7.7,9.3-11.899
		c3.3-4.201,13.5-17.101,22.7-28.801l16.7-21.1v-27.1v-27.101h-26h-26V173.999z"/>
	<rect x="490.39" y="215.799" fill-rule="evenodd" clip-rule="evenodd" fill="#20262B" width="33.333" height="30"/>
	<path fill-rule="evenodd" clip-rule="evenodd" fill="#393F46" d="M409.224,308.198c-0.6,0.701-5.5,6.701-11,13.101
		c-5.5,6.5-12.8,15.2-16.2,19.399l-6.3,7.601l131.2,0.3l131.1,0.2l-2.4,2.3c-1.301,1.2-10.5,11.5-20.4,22.7s-22,25-27,30.601
		c-17.799,19.999-60.399,68.6-74.499,84.899c-4.7,5.4-14.5,16.6-21.7,24.9l-13.3,15.1l107.499,0.3c59.1,0.101,155.9,0.101,215,0
		l107.5-0.3l-8.199-10.1c-4.6-5.5-11.9-14.601-16.201-20.2l-7.898-10.2h-151.5h-151.5l5.398-5.8c6.5-7,25-27.8,33.9-38.2
		c5.301-6.2,45.9-52.5,49.5-56.399c0.6-0.601,3.701-4.301,7-8.101c3.301-3.8,10.5-11.899,16-18s12.9-14.399,16.5-18.5
		c3.6-4,8.801-9.899,11.5-13c5.301-6,14.201-16.399,18.301-21.101l2.4-2.899h-161.9
		C436.023,306.799,410.023,306.999,409.224,308.198z"/>
	<path fill-rule="evenodd" clip-rule="evenodd" fill="#2462A6" d="M732.623,346.499l-15.6,17.6l13.6,16.5
		c7.5,9,19.699,23.9,27.1,33.101c24.4,30.3,42.5,52.399,45,55.3l2.5,2.899l28.201-0.3l28.299-0.3l-10.799-13.7
		c-5.9-7.5-16.102-20.6-22.701-29c-36.199-46.3-78.699-99.8-79.299-99.8C748.523,328.799,741.223,336.799,732.623,346.499z"/>
	<rect x="533.39" y="215.799" fill-rule="evenodd" clip-rule="evenodd" fill="#20262B" width="33.333" height="30"/>
	<rect x="490.39" y="251.799" fill-rule="evenodd" clip-rule="evenodd" fill="#20262B" width="33.333" height="30"/>
	<rect x="533.39" y="251.799" fill-rule="evenodd" clip-rule="evenodd" fill="#20262B" width="33.333" height="30"/>
</g>
<g>
	<rect x="280.112" y="567.674" fill-rule="evenodd" clip-rule="evenodd" fill="none" width="492.164" height="64.496"/>
	<path fill="#211915" d="M309.7,595.844l4.86-5.805c3.105,2.475,6.57,3.779,10.215,3.779c2.34,0,3.6-0.81,3.6-2.159v-0.091
		c0-1.305-1.035-2.024-5.31-3.015c-6.705-1.529-11.879-3.42-11.879-9.899v-0.09c0-5.85,4.635-10.08,12.194-10.08
		c5.354,0,9.54,1.44,12.959,4.186l-4.365,6.164c-2.88-2.024-6.03-3.104-8.82-3.104c-2.115,0-3.15,0.9-3.15,2.024v0.091
		c0,1.439,1.08,2.069,5.445,3.06c7.245,1.575,11.745,3.915,11.745,9.81v0.09c0,6.435-5.085,10.26-12.734,10.26
		C318.88,601.063,313.57,599.309,309.7,595.844z"/>
	<path fill="#211915" d="M363.925,569.024h25.334v7.425h-16.694v4.77h15.119v6.885h-15.119v4.995h16.919v7.425h-25.559V569.024z"/>
	<path fill="#211915" d="M416.44,569.024h14.894c4.815,0,8.145,1.261,10.26,3.42c1.845,1.8,2.79,4.23,2.79,7.335v0.09
		c0,4.814-2.565,8.01-6.48,9.675l7.515,10.979h-10.08l-6.345-9.54h-3.825v9.54h-8.729V569.024z M430.929,584.145
		c2.97,0,4.68-1.44,4.68-3.735v-0.09c0-2.475-1.8-3.735-4.725-3.735h-5.715v7.561H430.929z"/>
	<path fill="#211915" d="M467.875,569.024h9.765l7.155,19.935l7.155-19.935h9.584l-12.78,31.724h-8.1L467.875,569.024z"/>
	<path fill="#211915" d="M527.275,569.024h8.775v31.499h-8.775V569.024z"/>
	<path fill="#211915" d="M563.229,584.864v-0.09c0-9.18,7.064-16.38,16.604-16.38c6.435,0,10.574,2.7,13.364,6.57l-6.569,5.084
		c-1.801-2.249-3.87-3.689-6.885-3.689c-4.41,0-7.515,3.735-7.515,8.324v0.091c0,4.725,3.104,8.414,7.515,8.414
		c3.284,0,5.22-1.529,7.109-3.824l6.569,4.68c-2.97,4.095-6.975,7.109-13.949,7.109
		C570.475,601.153,563.229,594.269,563.229,584.864z"/>
	<path fill="#211915" d="M619.839,569.024h8.774v31.499h-8.774V569.024z"/>
	<path fill="#211915" d="M655.794,584.864v-0.09c0-9.045,7.29-16.38,17.009-16.38c9.72,0,16.92,7.245,16.92,16.289v0.091
		c0,9.044-7.29,16.379-17.01,16.379S655.794,593.909,655.794,584.864z M680.813,584.864v-0.09c0-4.545-3.284-8.505-8.1-8.505
		c-4.77,0-7.964,3.87-7.964,8.414v0.091c0,4.545,3.284,8.504,8.054,8.504C677.618,593.278,680.813,589.409,680.813,584.864z"/>
	<path fill="#211915" d="M714.159,595.844l4.859-5.805c3.105,2.475,6.57,3.779,10.215,3.779c2.34,0,3.6-0.81,3.6-2.159v-0.091
		c0-1.305-1.035-2.024-5.31-3.015c-6.705-1.529-11.88-3.42-11.88-9.899v-0.09c0-5.85,4.635-10.08,12.194-10.08
		c5.355,0,9.54,1.44,12.96,4.186l-4.365,6.164c-2.88-2.024-6.029-3.104-8.819-3.104c-2.115,0-3.149,0.9-3.149,2.024v0.091
		c0,1.439,1.079,2.069,5.444,3.06c7.245,1.575,11.744,3.915,11.744,9.81v0.09c0,6.435-5.084,10.26-12.734,10.26
		C723.339,601.063,718.028,599.309,714.159,595.844z"/>
</g>
<g>
	<rect y="652.424" fill-rule="evenodd" clip-rule="evenodd" fill="none" width="1060.447" height="199.49"/>
	<path fill="#211915" d="M159.795,617.428h20.86l15.96,104.996h-15.4l-2.8-20.85v0.301h-17.5l-2.8,20.549h-14.28L159.795,617.428z
		 M176.595,687.625l-6.86-51.897h-0.28l-6.72,51.897H176.595z"/>
	<path fill="#211915" d="M201.513,707.725l28.56-75.297h-27.16v-15h43.68v14.7l-28.56,75.297h28.56v14.999h-45.08V707.725z"/>
	<path fill="#211915" d="M300.069,617.428h15.4v104.996h-15.4V617.428z"/>
	<path fill="#211915" d="M326.947,617.428h19.32l14.98,62.848h0.28v-62.848h13.72v104.996h-15.82l-18.48-76.646h-0.28v76.646h-13.72
		V617.428z"/>
	<path fill="#211915" d="M386.725,617.428h21.98l9.8,75.147h0.28l9.8-75.147h21.98v104.996h-14.56v-79.497h-0.28l-11.2,79.497
		h-12.88l-11.2-79.497h-0.28v79.497h-13.44V617.428z"/>
	<path fill="#211915" d="M460.925,697.524v-55.197c0-16.8,8.26-26.399,23.38-26.399c15.12,0,23.38,9.6,23.38,26.399v55.197
		c0,16.8-8.26,26.399-23.38,26.399C469.185,723.924,460.925,714.324,460.925,697.524z M492.285,698.575v-57.298
		c0-7.5-3.08-10.35-7.98-10.35s-7.98,2.85-7.98,10.35v57.298c0,7.499,3.08,10.35,7.98,10.35S492.285,706.074,492.285,698.575z"/>
	<path fill="#211915" d="M518.043,617.428h23.24c15.96,0,22.82,7.95,22.82,24.149v4.2c0,10.799-3.08,17.549-9.939,20.549v0.3
		c8.26,3,11.479,10.8,11.479,21.899v8.999c0,16.2-7.979,24.899-23.38,24.899h-24.22V617.428z M539.463,660.177
		c5.74,0,9.24-2.7,9.24-11.1v-5.85c0-7.5-2.379-10.8-7.839-10.8h-7.42v27.749H539.463z M542.264,707.425
		c5.18,0,7.98-2.55,7.98-10.35v-9.15c0-9.749-2.94-12.749-9.94-12.749h-6.86v32.249H542.264z"/>
	<path fill="#211915" d="M574.603,617.428h15.399v104.996h-15.399V617.428z"/>
	<path fill="#211915" d="M601.48,617.428h15.399v89.997h25.34v14.999H601.48V617.428z"/>
	<path fill="#211915" d="M649.64,617.428h15.399v104.996H649.64V617.428z"/>
	<path fill="#211915" d="M688.417,617.428h20.86l15.96,104.996h-15.4l-2.8-20.85v0.301h-17.5l-2.8,20.549h-14.28L688.417,617.428z
		 M705.217,687.625l-6.859-51.897h-0.28l-6.72,51.897H705.217z"/>
	<path fill="#211915" d="M732.655,617.428h22.819c15.96,0,22.82,7.95,22.82,24.149v6.449c0,10.8-3.22,17.7-10.08,20.699v0.301
		c7.7,2.55,10.22,10.35,10.22,22.199v18.449c0,5.1,0.141,8.85,1.681,12.749h-15.681c-0.84-2.7-1.399-4.35-1.399-12.899v-19.199
		c0-9.75-2.66-12.899-9.66-12.899h-5.32v44.998h-15.399V617.428z M753.655,662.427c5.739,0,9.239-2.7,9.239-11.1v-8.1
		c0-7.5-2.38-10.8-7.84-10.8h-7v29.999H753.655z"/>
	<path fill="#211915" d="M789.075,617.428h15.399v104.996h-15.399V617.428z"/>
	<path fill="#211915" d="M814.833,697.524v-55.197c0-16.8,8.26-26.399,23.38-26.399s23.38,9.6,23.38,26.399v55.197
		c0,16.8-8.26,26.399-23.38,26.399S814.833,714.324,814.833,697.524z M846.192,698.575v-57.298c0-7.5-3.08-10.35-7.979-10.35
		c-4.9,0-7.98,2.85-7.98,10.35v57.298c0,7.499,3.08,10.35,7.98,10.35C843.112,708.925,846.192,706.074,846.192,698.575z"/>
	<path fill="#211915" d="M869.292,697.524v-5.999h14.56v7.199c0,7.5,3.08,10.2,7.98,10.2c4.899,0,7.979-2.7,7.979-10.5
		c0-8.699-3.08-14.249-13.16-23.699c-12.88-12.149-17.079-20.699-17.079-32.698c0-16.5,7.979-26.1,22.96-26.1
		c14.979,0,22.399,9.6,22.399,26.399v4.35h-14.56v-5.399c0-7.5-2.8-10.35-7.7-10.35s-7.7,2.85-7.7,10.05
		c0,7.649,3.22,13.199,13.3,22.648c12.88,12.149,16.94,20.55,16.94,33.599c0,17.1-8.12,26.699-23.24,26.699
		S869.292,714.324,869.292,697.524z"/>
</g>
<rect x="141.594" y="583.533" fill-rule="evenodd" clip-rule="evenodd" fill="#211915" width="142.417" height="5.203"/>
<rect x="768.84" y="582.467" fill-rule="evenodd" clip-rule="evenodd" fill="#211915" width="146.883" height="5.203"/>
<g>
</g>
<g>
</g>
<g>
</g>
<g>
</g>
<g>
</g>
</svg>
