<?xml version="1.0" encoding="utf-8"?>
<!-- Generator: Adobe Illustrator 16.0.0, SVG Export Plug-In . SVG Version: 6.00 Build 0)  -->
<!DOCTYPE svg PUBLIC "-//W3C//DTD SVG 1.1//EN" "http://www.w3.org/Graphics/SVG/1.1/DTD/svg11.dtd">
<svg version="1.1" xmlns="http://www.w3.org/2000/svg" xmlns:xlink="http://www.w3.org/1999/xlink" x="0px" y="0px"
	 width="876.24" height="566.78" viewBox="430.77 120.22 876.24 566.78" 
	 xml:space="preserve">
<g id="New_Layer">
	<g>
		<path fill-rule="evenodd" clip-rule="evenodd" fill="#00316B" d="M847.563,173.365c-2.699,3.301-8.299,10.2-12.4,15.1
			c-14.1,17.5-15.699,19.4-24.1,29.601c-4.699,5.601-9.799,11.899-11.5,14c-1.6,2-10.9,13.3-20.5,25.101
			c-9.699,11.799-25.1,30.799-34.299,42.399c-9.201,11.5-19.301,24.2-22.4,28.101c-3.201,3.899-13.9,17.1-23.801,29.399
			c-20.5,25.399-23.299,28.8-40.5,49.899c-6.9,8.4-17,21-22.5,28c-5.5,7.101-16.5,21.101-24.5,31.201
			c-8,10.1-16.898,21.5-19.898,25.399c-3,3.8-8.701,11-12.602,16c-4,4.899-10.1,12.8-13.6,17.5c-3.6,4.7-11.199,14.6-16.9,22
			c-5.699,7.4-16,20.9-22.898,30c-28.9,38-40.4,53-47.4,61.7c-0.701,1,4.799,1.3,27.199,1.3h28.1l11.5-14.8
			c6.301-8.101,15.4-19.7,20.201-25.8c4.9-6.101,15.1-19.2,22.799-29c11.801-15.2,72-90.7,87.5-109.9c35-43.2,49-60.399,69-85
			c13-16,29.201-36,36.1-44.5c40.201-49.7,66.4-81.899,70.602-86.899l2.898-3.4l22.701,26.9
			c12.4,14.799,28.799,34.299,36.299,43.399c17.701,21.399,45.102,54.3,53.4,64c3.6,4.2,9.701,11.5,13.5,16.3l7,8.6l28.9,0.101
			c27.301,0,28.801-0.101,27.5-1.7c-0.801-1-5.199-6.3-9.9-11.9c-4.699-5.5-16.9-20.399-27.199-33
			c-18.5-22.699-27.1-33.199-48.1-58.799c-5.9-7.201-14.9-18.301-20.102-24.601c-5.1-6.3-18.5-22.601-29.699-36.101
			s-27.1-32.799-35.4-42.899c-8.199-10.101-16.1-19.601-17.5-21.101l-2.5-2.799L847.563,173.365z"/>
		<path fill-rule="evenodd" clip-rule="evenodd" fill="#393E44" d="M698.063,284.266v60.199l3.301-4.399
			c1.699-2.399,5.9-7.7,9.299-11.899c3.301-4.201,13.5-17.101,22.701-28.801l16.699-21.1v-27.1v-27.101h-26h-26V284.266z"/>
		<rect x="814.729" y="326.065" fill-rule="evenodd" clip-rule="evenodd" fill="#20262B" width="33.334" height="30"/>
		<path fill-rule="evenodd" clip-rule="evenodd" fill="#393F46" d="M733.563,418.465c-0.6,0.701-5.5,6.701-11,13.101
			c-5.5,6.5-12.799,15.2-16.199,19.399l-6.301,7.601l131.201,0.3l131.1,0.2l-2.4,2.3c-1.301,1.2-10.5,11.5-20.4,22.7
			s-22,25-27,30.601c-17.799,19.999-60.4,68.6-74.5,84.899c-4.699,5.4-14.5,16.6-21.699,24.9l-13.301,15.1l107.5,0.3
			c59.1,0.101,155.9,0.101,215,0l107.5-0.3l-8.199-10.1c-4.6-5.5-11.9-14.601-16.201-20.2l-7.898-10.2h-151.5h-151.5l5.398-5.8
			c6.5-7,25-27.8,33.9-38.2c5.301-6.2,45.9-52.5,49.5-56.399c0.6-0.601,3.701-4.301,7-8.101c3.301-3.8,10.5-11.899,16-18
			s12.9-14.399,16.5-18.5c3.6-4,8.801-9.899,11.5-13c5.301-6,14.201-16.399,18.301-21.101l2.4-2.899h-161.9
			C760.364,417.065,734.364,417.266,733.563,418.465z"/>
		<path fill-rule="evenodd" clip-rule="evenodd" fill="#2462A7" d="M1056.964,456.766l-15.6,17.6l13.6,16.5
			c7.5,9,19.699,23.9,27.1,33.101c24.4,30.3,42.5,52.399,45,55.3l2.5,2.899l28.201-0.3l28.299-0.3l-10.799-13.7
			c-5.9-7.5-16.102-20.6-22.701-29c-36.199-46.3-78.699-99.8-79.299-99.8C1072.864,439.065,1065.563,447.065,1056.964,456.766z"/>
		<rect x="857.729" y="326.065" fill-rule="evenodd" clip-rule="evenodd" fill="#20262B" width="33.334" height="30"/>
		<rect x="814.729" y="362.065" fill-rule="evenodd" clip-rule="evenodd" fill="#20262B" width="33.334" height="30"/>
		<rect x="857.729" y="362.065" fill-rule="evenodd" clip-rule="evenodd" fill="#20262B" width="33.334" height="30"/>
	</g>
	<line fill-rule="evenodd" clip-rule="evenodd" fill="#393F46" x1="1142.317" y1="599.065" x2="1199.372" y2="599.065"/>
	<polygon fill-rule="evenodd" clip-rule="evenodd" fill="#00316B" points="1199.372,598.935 1233.063,639.602 1174.624,639.602 
		1142.317,599.065 	"/>
	<path fill-rule="evenodd" clip-rule="evenodd" fill="#2462A7" d="M1260.063,510.615"/>
	<polygon fill-rule="evenodd" clip-rule="evenodd" fill="#00316B" points="1026.253,453.851 1058.265,417.065 998.313,417.065 
		1026.063,454.065 	"/>
	<line fill-rule="evenodd" clip-rule="evenodd" fill="#00316B" x1="1058.265" y1="417.065" x2="998.313" y2="417.065"/>
</g>
<g id="MasterLayer_1">
</g>
</svg>
